<svg xmlns="http://www.w3.org/2000/svg" width="699" height="448" viewBox="0 0 699 448">
  <g fill="none" fill-rule="evenodd" transform="matrix(-1 0 0 1 696.846 2.26)">
    <rect width="610.86" height="275.81" x="43.094" y="37.232" stroke="#000" stroke-linecap="round" stroke-linejoin="bevel" stroke-width="4.115"/>
    <path stroke="#000" stroke-width="2.6" d="M162.938464,133.74055 C150.695282,133.74055 140.84594,144.396105 140.84594,157.641932 L140.84594,240.839168 C140.84594,254.084778 150.695082,264.74055 162.938464,264.74055 L537.753416,264.74055 C549.996598,264.74055 559.84594,254.084995 559.84594,240.839168 L559.84594,157.641932 C559.84594,144.396322 549.996798,133.74055 537.753416,133.74055 L162.938464,133.74055 L162.938464,133.74055 Z M278.830106,154.74055 L425.893135,154.74055 C430.310636,154.74055 433.84594,158.603985 433.84594,163.389296 L433.84594,241.125774 C433.84594,245.910977 430.310736,249.74055 425.893135,249.74055 L278.830106,249.74055 C274.412604,249.74055 270.84594,245.911086 270.84594,241.125774 L270.84594,163.389296 C270.84594,158.604094 274.412504,154.74055 278.830106,154.74055 L278.830106,154.74055 Z"/>
    <rect width="692.68" height="442.8" x=".738" y=".051" stroke="#000" stroke-linecap="round" stroke-linejoin="bevel" stroke-width="3.784"/>
    <g stroke="#000" transform="translate(161 154)">
      <path stroke-linecap="round" stroke-width="10.284" d="M88.6088629,45.1415212 C88.6088629,69.6036554 68.7784728,89.434857 44.3155271,89.434857 C19.8533929,89.434857 0.02219122,69.604467 0.02219122,45.1415212 C0.02219122,20.679387 19.8525813,0.84818536 44.3155271,0.84818536 C68.7776612,0.84818536 88.6088629,20.6785754 88.6088629,45.1415212 Z"/>
      <g fill="#000" fill-rule="nonzero" transform="translate(2 11)">
        <rect width="12.738" height="7.872" x=".65" y="31.61"/>
        <rect width="12.738" height="7.872" x="70.07" y="31.61"/>
        <rect width="12.738" height="7.872" x="12.383" y="5.601" transform="rotate(48.548 18.752 9.537)"/>
        <rect width="12.738" height="7.872" x="58.332" y="57.625" transform="rotate(48.548 64.701 61.56)"/>
        <rect width="12.738" height="7.872" x="14.49" y="59.349" transform="rotate(-53.045 20.86 63.285)"/>
        <rect width="12.738" height="7.872" x="56.221" y="3.879" transform="rotate(-53.045 62.59 7.815)"/>
      </g>
      <g transform="translate(294.39)">
        <path stroke-linecap="round" stroke-width="10.284" d="M88.6088629,45.1415212 C88.6088629,69.6036554 68.7784728,89.434857 44.3155271,89.434857 C19.8533929,89.434857 0.02219122,69.604467 0.02219122,45.1415212 C0.02219122,20.679387 19.8525813,0.84818536 44.3155271,0.84818536 C68.7776612,0.84818536 88.6088629,20.6785754 88.6088629,45.1415212 Z"/>
        <g fill="#000" fill-rule="nonzero" transform="translate(2 11)">
          <rect width="12.738" height="7.872" x=".65" y="31.61"/>
          <rect width="12.738" height="7.872" x="70.07" y="31.61"/>
          <rect width="12.738" height="7.872" x="12.383" y="5.601" transform="rotate(48.548 18.752 9.537)"/>
          <rect width="12.738" height="7.872" x="58.332" y="57.625" transform="rotate(48.548 64.701 61.56)"/>
          <rect width="12.738" height="7.872" x="14.49" y="59.349" transform="rotate(-53.045 20.86 63.285)"/>
          <rect width="12.738" height="7.872" x="56.221" y="3.879" transform="rotate(-53.045 62.59 7.815)"/>
        </g>
      </g>
    </g>
    <rect width="573.74" height="68.955" x="63.419" y="45.181" stroke="#000" stroke-linecap="round" stroke-linejoin="round" stroke-width="4.115"/>
    <path stroke="#000" d="M158.01 63.746L621.25 63.746M158.01 85.746L621.25 85.746"/>
    <g stroke="#000" stroke-linecap="round" transform="translate(49 373)">
      <path stroke-width="4.115" d="M51.09,26.01 C51.09,39.925 39.81,51.205 25.895,51.205 C11.98,51.205 0.7,39.925 0.7,26.01 C0.7,12.095 11.98,0.815 25.895,0.815 C39.81,0.815 51.09,12.095 51.09,26.01 Z"/>
      <path stroke-width="2.492" d="M29.2605365,26.7355985 C29.2605365,28.1945863 28.0778285,29.3772943 26.6188408,29.3772943 C25.159853,29.3772943 23.977145,28.1945863 23.977145,26.7355985 C23.977145,25.2766108 25.159853,24.0939028 26.6188408,24.0939028 C28.0778285,24.0939028 29.2605365,25.2766108 29.2605365,26.7355985 Z"/>
    </g>
    <g stroke="#000" stroke-linecap="round" transform="translate(598.87 373)">
      <path stroke-width="4.115" d="M51.09,26.01 C51.09,39.925 39.81,51.205 25.895,51.205 C11.98,51.205 0.7,39.925 0.7,26.01 C0.7,12.095 11.98,0.815 25.895,0.815 C39.81,0.815 51.09,12.095 51.09,26.01 Z"/>
      <path stroke-width="2.492" d="M29.2605365,26.7355985 C29.2605365,28.1945863 28.0778285,29.3772943 26.6188408,29.3772943 C25.159853,29.3772943 23.977145,28.1945863 23.977145,26.7355985 C23.977145,25.2766108 25.159853,24.0939028 26.6188408,24.0939028 C28.0778285,24.0939028 29.2605365,25.2766108 29.2605365,26.7355985 Z"/>
    </g>
    <path stroke="#000" stroke-width="3.4" d="M112.04,443 C112.04,443 127.558,353.497 138.561,338.68 C145.3115,329.5915 551.571,333.7623 558.481,337.79598 C569.09,343.98428 587.654,442.99598 587.654,442.99598 L112.04,442.99598 L112.04,443 Z"/>
    <path stroke="#000" stroke-linecap="round" stroke-width="3.4" d="M201.33 418.69C201.33 427.2343 194.4035 434.161 185.859 434.161 177.3147 434.161 170.388 427.2345 170.388 418.69 170.388 410.1458 177.3145 403.219 185.859 403.219 194.4033 403.219 201.33 410.1455 201.33 418.69zM538.15 418.69C538.15 427.2343 531.2235 434.161 522.679 434.161 514.1347 434.161 507.208 427.2345 507.208 418.69 507.208 410.1458 514.1345 403.219 522.679 403.219 531.2233 403.219 538.15 410.1455 538.15 418.69zM463.01 406.313C463.01 414.8573 456.0835 421.784 447.539 421.784 438.9947 421.784 432.068 414.8575 432.068 406.313 432.068 397.7688 438.9945 390.842 447.539 390.842 456.0833 390.842 463.01 397.7685 463.01 406.313zM269.401 405.429C269.401 413.9733 262.4745 420.9 253.93 420.9 245.3857 420.9 238.459 413.9735 238.459 405.429 238.459 396.8848 245.3855 389.958 253.93 389.958 262.4743 389.958 269.401 396.8845 269.401 405.429z"/>
    <g transform="translate(14 10)">
      <path stroke="#000" stroke-linecap="round" stroke-width="3.137" d="M22.4930439,11.3132127 C22.4930439,17.4380233 17.5279209,22.4032896 11.402967,22.4032896 C5.2781564,22.4032896 0.31289004,17.4381666 0.31289004,11.3132127 C0.31289004,5.18847381 5.27801303,0.22313577 11.402967,0.22313577 C17.5277775,0.22313577 22.4930439,5.18825876 22.4930439,11.3132127 Z"/>
      <polygon fill="#000" fill-rule="nonzero" points="4.647 13.491 9.736 13.602 9.736 18.58 12.944 18.469 12.722 13.491 17.7 13.27 17.59 10.615 12.612 10.725 12.39 4.752 9.625 4.973 9.846 10.836 4.647 10.836 4.647 13.491"/>
    </g>
    <g transform="translate(654 10)">
      <path stroke="#000" stroke-linecap="round" stroke-width="3.137" d="M22.5430439,11.3132127 C22.5430439,17.4380233 17.5779209,22.4032896 11.452967,22.4032896 C5.3281564,22.4032896 0.36289004,17.4381666 0.36289004,11.3132127 C0.36289004,5.18847381 5.32801303,0.22313577 11.452967,0.22313577 C17.5777775,0.22313577 22.5430439,5.18825876 22.5430439,11.3132127 Z"/>
      <polygon fill="#000" fill-rule="nonzero" points="5.07 13.451 10.159 13.562 10.159 18.54 13.367 18.429 13.145 13.451 18.123 13.23 18.013 10.575 13.035 10.685 12.813 4.712 10.048 4.933 10.269 10.796 5.07 10.796 5.07 13.451"/>
    </g>
    <g transform="translate(12.17 409.86)">
      <path stroke="#000" stroke-linecap="round" stroke-width="3.137" d="M22.5430439,11.3132127 C22.5430439,17.4380233 17.5779209,22.4032896 11.452967,22.4032896 C5.3281564,22.4032896 0.36289004,17.4381666 0.36289004,11.3132127 C0.36289004,5.18847381 5.32801303,0.22313577 11.452967,0.22313577 C17.5777775,0.22313577 22.5430439,5.18825876 22.5430439,11.3132127 Z"/>
      <polygon fill="#000" fill-rule="nonzero" points="5.07 13.451 10.159 13.562 10.159 18.54 13.367 18.429 13.145 13.451 18.123 13.23 18.013 10.575 13.035 10.685 12.813 4.712 10.048 4.933 10.269 10.796 5.07 10.796 5.07 13.451"/>
    </g>
    <g transform="translate(658.193 411.63)">
      <path stroke="#000" stroke-linecap="round" stroke-width="3.137" d="M22.5430439,11.3132127 C22.5430439,17.4380233 17.5779209,22.4032896 11.452967,22.4032896 C5.3281564,22.4032896 0.36289004,17.4381666 0.36289004,11.3132127 C0.36289004,5.18847381 5.32801303,0.22313577 11.452967,0.22313577 C17.5777775,0.22313577 22.5430439,5.18825876 22.5430439,11.3132127 Z"/>
      <polygon fill="#000" fill-rule="nonzero" points="5.07 13.451 10.159 13.562 10.159 18.54 13.367 18.429 13.145 13.451 18.123 13.23 18.013 10.575 13.035 10.685 12.813 4.712 10.048 4.933 10.269 10.796 5.07 10.796 5.07 13.451"/>
    </g>
  </g>
</svg>
